<svg  width="22" height="22">
  <path d="M2527 248.9a.688.688 0 0 0-.694-.682l-1.776.016 1.561-1.59a.687.687 0 1 0-.981-.963l-2.525 2.571-4.933.044 3.406-3.468 3.606-.032a.688.688 0 0 0-.012-1.375l-2.23.02 1.3-1.318a.688.688 0 0 0-.982-.963l-1.293 1.316-.02-2.229a.688.688 0 0 0-1.375.013l.032 3.6-3.407 3.469-.044-4.93 2.527-2.573a.687.687 0 1 0-.98-.963l-1.563 1.591-.015-1.778a.688.688 0 0 0-1.377.011l.016 1.777-1.59-1.561a.688.688 0 0 0-.965.981l2.571 2.525.044 4.932-3.468-3.406-.033-3.606a.688.688 0 0 0-1.375.013l.021 2.23-1.318-1.3a.688.688 0 0 0-.963.982l1.317 1.294-2.229.019a.688.688 0 1 0 .013 1.376l3.6-.032 3.469 3.407-4.932.044-2.57-2.525a.688.688 0 0 0-.965.981l1.59 1.562-1.777.016a.688.688 0 0 0 .012 1.376l1.778-.016-1.563 1.591a.688.688 0 0 0 .982.963l2.527-2.572 4.93-.044-3.407 3.469-3.6.033a.688.688 0 1 0 .011 1.375l2.228-.02-1.294 1.318a.687.687 0 1 0 .982.962l1.294-1.318.02 2.231a.688.688 0 1 0 1.375-.013l-.032-3.6 3.406-3.469.044 4.933-2.525 2.57a.687.687 0 1 0 .98.963l1.562-1.589.015 1.777a.688.688 0 1 0 1.375-.014l-.016-1.777 1.591 1.563a.688.688 0 0 0 .964-.981l-2.572-2.528-.043-4.93 3.469 3.409.032 3.6a.688.688 0 0 0 1.375-.014l-.018-2.228 1.317 1.293a.685.685 0 0 0 .488.2.693.693 0 0 0 .484-.207.686.686 0 0 0-.01-.972l-1.318-1.293 2.229-.02a.688.688 0 1 0-.012-1.375l-3.6.033-3.469-3.409 4.932-.043 2.571 2.527a.688.688 0 1 0 .964-.98l-1.591-1.564 1.778-.016a.684.684 0 0 0 .674-.69Z" transform="translate(-2505.001 -238.001)" style="fill:#e5e5e5"/>
</svg>