

<svg width="15.4" height="22">
  <path d="M2523.355 180.863a13.418 13.418 0 0 0-2.919-7.152c-1.165-1.679-2.171-3.13-2.171-5.27a.463.463 0 0 0-.232-.408.4.4 0 0 0-.445.035 11.7 11.7 0 0 0-4.015 6.218 21.716 21.716 0 0 0-.44 4.649c-1.744-.4-2.139-3.2-2.144-3.226a.458.458 0 0 0-.223-.34.4.4 0 0 0-.387-.008c-.092.048-2.246 1.22-2.371 5.9a9.11 9.11 0 0 0-.009.468 8 8 0 0 0 7.7 8.249.047.047 0 0 0 .017 0h.005a8 8 0 0 0 7.677-8.249c.002-.229-.043-.866-.043-.866Zm-7.656 8.2a2.769 2.769 0 0 1-2.566-2.929v-.179a3.951 3.951 0 0 1 .271-1.455 1.576 1.576 0 0 0 1.413 1.1.443.443 0 0 0 .427-.458 9.837 9.837 0 0 1 .164-2.085 4.556 4.556 0 0 1 .865-1.757 6.057 6.057 0 0 0 .882 1.733 5.419 5.419 0 0 1 1.1 2.862c.006.079.011.158.011.243a2.769 2.769 0 0 1-2.566 2.927Z" transform="translate(-2507.999 -167.982)" style="fill:#e5e5e5"/>
</svg>