
<svg xmlns="http://www.w3.org/2000/svg" viewBox="0 0 32.002 32.002" style="enable-background:new 0 0 32.002 32.002" xml:space="preserve">
  <path style="fill:rgb(255, 255, 255)" d="M28.157 3.719c-4.957-4.957-13.605-4.961-18.559 0L4.001 9.32V4h-4v12.007h12v-3.92H6.978l5.453-5.537c3.445-3.449 9.453-3.449 12.898.004 1.723 1.723 2.672 4.012 2.672 6.534 0 2.357-.949 4.646-2.672 6.373l-3.016 3.014 2.828 2.828 3.016-3.008c2.477-2.486 3.844-5.783 3.844-9.207 0-3.592-1.367-6.889-3.844-9.369zM18.45 32.002l-2.828-2.836 2.828-2.828 2.828 2.828z"/>
</svg>