
<svg viewBox="0 0 25 25" fill="white">
  <path d="M21 4A11.54 11.54 0 0 0 12.53.5 11.61 11.61 0 0 0 4 4a11.29 11.29 0 0 0-3.5 8.5A11.57 11.57 0 0 0 4 21a12.54 12.54 0 0 0 2.33 1.85 11.12 11.12 0 0 0 3.56 1.42 13.15 13.15 0 0 0 2.62.26A11.54 11.54 0 0 0 21 21a11.57 11.57 0 0 0 3.5-8.5A11.29 11.29 0 0 0 21 4Zm-1 16.12a10.14 10.14 0 0 1-7.46 3.11 12.42 12.42 0 0 1-2.05-.17l3.6-7.83a1.67 1.67 0 0 0 .07-1.11c-.29-.79-1.06-1.21-2.29-1.26s-3.1.62-5.61 2L4 16.2l5.17-1.63c1.08-.2 1 .76-.15 2.89l-2.11 4.23A10.58 10.58 0 0 1 5 20.12a10.44 10.44 0 0 1-3.1-7.55A10.3 10.3 0 0 1 5 5a10.26 10.26 0 0 1 7.5-3.1A10.18 10.18 0 0 1 20 5a10.18 10.18 0 0 1 3.18 7.56A10.32 10.32 0 0 1 20 20.12ZM13.75 5.9a2.67 2.67 0 0 0-2 .82 2.73 2.73 0 0 0-.82 2 2.75 2.75 0 0 0 .82 2 2.86 2.86 0 0 0 4 0 2.74 2.74 0 0 0 .81-2 2.72 2.72 0 0 0-.81-2 2.69 2.69 0 0 0-2-.82Z"/>
</svg>