
<svg viewBox="0 0 25 25" fill="white">
  <path d="M2 1.6C.9 2.77.57 4.79 1.91 5.92c.85.71 1.74 1 3.87 1.63a17.19 17.19 0 0 1 5.89 3.13c.38.34 1 .67.87 1.09a22.14 22.14 0 0 1-8 5.52C2.76 18 .32 18.91 0 20.89V21a3.25 3.25 0 0 0 0 .87c.71 3.7 6.24 3.29 8-.09l.11-.21c1-1.91 3.24-6.22 6-8.17a.83.83 0 0 1 .88.05c1.4 1.11 3.13 3 3.38 4 1 3.92 4 3 4.73 2.67a3.31 3.31 0 0 0 1.26-1.22 2.47 2.47 0 0 0-1.7-3.72 16.84 16.84 0 0 1-6.36-3.4c-.37-.4-.32-1.08 3.06-3.21a14.5 14.5 0 0 1 3.94-1.9 2.35 2.35 0 0 0 1.42-3.33 2.76 2.76 0 0 0-2.35-1.28 2.48 2.48 0 0 0-2.43 1.53 17.37 17.37 0 0 1-3 4C15.85 8.84 15 9.67 15 9.67a.86.86 0 0 1-1.19.18C12.33 8.71 9.91 5 9.06 3.51c-1.34-2.29-2.95-3-4.33-3A3.85 3.85 0 0 0 2 1.6"/>
</svg>