
<svg viewBox="0 0 25 25" fill="white">
  <path d="M24.42 11.17a.78.78 0 0 0-.77-.59A2.65 2.65 0 0 1 21.84 6a.68.68 0 0 0 .07-.91A11.9 11.9 0 0 0 20 3.14a.67.67 0 0 0-.91.07 2.76 2.76 0 0 1-3 .68 2.67 2.67 0 0 1-1.63-2.61.65.65 0 0 0-.58-.7 12.19 12.19 0 0 0-2.7 0 .68.68 0 0 0-.6.69A2.67 2.67 0 0 1 9 3.82a2.76 2.76 0 0 1-3-.68.67.67 0 0 0-.9-.07A11.37 11.37 0 0 0 3.15 5a.66.66 0 0 0 .07.91 2.67 2.67 0 0 1 .67 3 2.77 2.77 0 0 1-2.61 1.62.67.67 0 0 0-.7.59 12.46 12.46 0 0 0 0 2.73.79.79 0 0 0 .79.59 2.63 2.63 0 0 1 2.46 1.65 2.66 2.66 0 0 1-.67 3 .68.68 0 0 0-.07.91A12.32 12.32 0 0 0 5 21.86a.67.67 0 0 0 .91-.07 2.76 2.76 0 0 1 3-.68 2.65 2.65 0 0 1 1.62 2.61.67.67 0 0 0 .59.7 12.81 12.81 0 0 0 1.39.08c.43 0 .87 0 1.31-.07a.68.68 0 0 0 .6-.69A2.67 2.67 0 0 1 16 21.18a2.76 2.76 0 0 1 3 .68.68.68 0 0 0 .9.07A11.75 11.75 0 0 0 21.85 20a.66.66 0 0 0-.07-.91 2.65 2.65 0 0 1 1.78-4.62h.15a.65.65 0 0 0 .7-.58 11.87 11.87 0 0 0 .01-2.72Zm-11.9 5.36a4 4 0 1 1 4-4 4 4 0 0 1-4 4Z"/>
</svg>